<svg width="500" height="500" viewBox="0 0 500 500" fill="none" xmlns="http://www.w3.org/2000/svg">
<g clip-path="url(#clip0_22_5)">
<path d="M204.8 340.6C212.4 328.6 228.4 332.2 228.4 343C228.4 365 199.6 386.6 180.4 392.2C78 421.8 30.8 329 31.6 257.8C32 196.2 59.6 133 132.8 120.2C193.2 110.2 228.4 155.8 226.4 170.2C224.4 184.6 190 187.8 178.8 181.4C165.6 173 157.2 148.2 144.8 145.4C137.6 143.4 128.8 149 116.8 169.4C101.2 196.2 97.6 227.8 97.2 258.2C96 325 120 372.6 156 372.6C171.2 372.6 189.2 364.2 204.8 340.6ZM465.7 175C476.1 180.2 469.7 201.8 449.3 213.8C446.1 285 424.5 399.4 348.5 399.4C263.7 399.4 220.9 244.6 260.5 144.6C274.1 110.2 334.1 113.4 325.7 147.8C307.7 249.4 328.9 370.6 364.9 368.2C406.9 365 424.9 248.6 425.7 222.2C373.7 229.4 346.9 171 368.9 137C387.3 108.6 450.1 117.8 448.9 181.8C453.3 181.4 459.3 171 465.7 175ZM394.9 160.6C397.3 173.8 410.5 186.2 426.1 184.6C428.1 141.4 387.7 125.8 394.9 160.6Z" fill="#FF0054"/>
</g>
<defs>
<clipPath id="clip0_22_5">
<rect width="500" height="500" fill="white"/>
</clipPath>
</defs>
</svg>
